# xmcd
#
# Track frame offsets: 
#        150
#        36033
#        81556
#        113019
#        206826
#        236752
#        274538
#
# Disc length: 4109 seconds
#
# Revision: 0
# Processed by: cddbd v1.5.2PL0 Copyright (c) Steve Scherf et al.
# Submitted via: ExactAudioCopy v0.99pb5
#
DISCID=5d100b07
DTITLE=Van Der Graaf Generator  - World Record 1976  (Remastered)
DYEAR=1900
DGENRE=
TTITLE0=When She Comes
TTITLE1=A Place To Survive
TTITLE2=Masks
TTITLE3=Meurglys III (The Songwriter's Guild)
TTITLE4=Wondering
TTITLE5=When She Comes (bonus)
TTITLE6=Masks (bonus)
EXTD=
EXTT0=
EXTT1=
EXTT2=
EXTT3=
EXTT4=
EXTT5=
EXTT6=
PLAYORDER=
